<?xml version="1.0" standalone="no"?>
<!DOCTYPE svg PUBLIC "-//W3C//DTD SVG 20010904//EN"
 "http://www.w3.org/TR/2001/REC-SVG-20010904/DTD/svg10.dtd">
<svg version="1.0" xmlns="http://www.w3.org/2000/svg"
 width="276.000000pt" height="276.000000pt" viewBox="0 0 276.000000 276.000000"
 preserveAspectRatio="xMidYMid meet">
<metadata>
Created by potrace 1.14, written by Peter Selinger 2001-2017
</metadata>
<g transform="translate(0.000000,276.000000) scale(0.100000,-0.100000)"
fill="#000000" stroke="none">
<path d="M1707 2153 c-117 -190 -177 -292 -177 -305 0 -9 7 -19 16 -22 20 -8
378 -8 398 0 9 3 16 14 16 23 -1 25 -195 336 -213 339 -10 2 -25 -12 -40 -35z"/>
<path d="M1384 1652 c-6 -4 -55 -79 -108 -167 -74 -120 -96 -163 -88 -175 8
-13 41 -15 213 -15 196 0 204 1 207 20 2 20 -185 336 -203 342 -6 1 -15 -1
-21 -5z"/>
<path d="M2047 1608 c-106 -169 -168 -279 -165 -295 3 -17 18 -18 207 -18 172
0 205 2 213 15 8 12 -14 55 -88 175 -92 151 -109 174 -126 175 -4 0 -22 -24
-41 -52z"/>
<path d="M1007 903 c-138 -223 -177 -292 -171 -307 6 -15 29 -16 213 -14 l206
3 0 25 c-1 14 -43 94 -94 178 -103 169 -115 178 -154 115z"/>
<path d="M1630 783 c-52 -86 -95 -166 -95 -177 0 -21 5 -21 210 -21 205 0 210
0 210 21 0 11 -43 91 -95 177 -72 119 -100 157 -115 157 -15 0 -43 -38 -115
-157z"/>
<path d="M2330 788 c-52 -84 -94 -164 -95 -178 l0 -25 206 -3 c184 -2 207 -1
213 14 9 24 -184 338 -211 342 -16 2 -38 -27 -113 -150z"/>
</g>
</svg>
