<svg width="16" height="16" viewBox="0 0 16 16" fill="none" xmlns="http://www.w3.org/2000/svg">
<path d="M8.66667 14.634C8.4474 14.6558 8.225 14.6669 8 14.6669C7.775 14.6669 7.5526 14.6558 7.33333 14.634V9.33366H6.66667C6.29848 9.33366 6 9.03518 6 8.66699C6 8.2988 6.29848 8.00032 6.66667 8.00032H7.33333V6.66699C7.33333 5.56242 8.22876 4.66699 9.33333 4.66699H10C10.3682 4.66699 10.6667 4.96546 10.6667 5.33365C10.6667 5.70184 10.3682 6.00032 10 6.00032H9.33333C8.96514 6.00032 8.66667 6.2988 8.66667 6.66699V8.00032H10C10.3682 8.00032 10.6667 8.2988 10.6667 8.66699C10.6667 9.03518 10.3682 9.33366 10 9.33366H8.66667V14.634Z" fill="black"/>
<path fill-rule="evenodd" clip-rule="evenodd" d="M7.99997 13.3331C10.9455 13.3331 13.3333 10.9452 13.3333 7.99968C13.3333 5.05416 10.9455 2.66635 7.99997 2.66635C5.05445 2.66635 2.66664 5.05416 2.66664 7.99968C2.66664 10.9452 5.05445 13.3331 7.99997 13.3331ZM7.99997 14.6664C11.6819 14.6664 14.6667 11.6816 14.6667 7.99968C14.6667 4.31778 11.6819 1.33301 7.99997 1.33301C4.31807 1.33301 1.33331 4.31778 1.33331 7.99968C1.33331 11.6816 4.31807 14.6664 7.99997 14.6664Z" fill="black"/>
</svg>
