<svg width="16" height="16" viewBox="0 0 16 16" fill="none" xmlns="http://www.w3.org/2000/svg">
<path d="M13.2118 14.9076H2.77252C1.83758 14.9076 1.0769 14.1469 1.0769 13.212V2.77277C1.0769 1.83783 1.83758 1.07715 2.77252 1.07715H13.2118C14.1467 1.07715 14.9074 1.83783 14.9074 2.77277V13.212C14.9074 14.1469 14.1467 14.9076 13.2118 14.9076ZM2.77252 1.99918C2.34593 1.99918 1.99893 2.34617 1.99893 2.77277V13.212C1.99893 13.6384 2.34593 13.9856 2.77252 13.9856H13.2118C13.6382 13.9856 13.9854 13.6384 13.9854 13.212V2.77277C13.9854 2.34617 13.6382 1.99918 13.2118 1.99918H2.77252Z" fill="black"/>
<path d="M5.86995 6.70459H4.27637V11.828H5.86995V6.70459Z" fill="black"/>
<path d="M5.07319 6.00406C4.563 6.00406 4.15039 5.59037 4.15039 5.08095C4.15039 4.57107 4.563 4.15723 5.07319 4.15723C5.5823 4.15723 5.99599 4.57091 5.99599 5.08095C5.99599 5.59037 5.58215 6.00406 5.07319 6.00406Z" fill="black"/>
<path d="M11.834 11.8273H10.2424V9.33586C10.2424 8.74161 10.2321 7.9774 9.41488 7.9774C8.58628 7.9774 8.45981 8.62513 8.45981 9.29314V11.8273H6.86823V6.70408H8.39558V7.40467H8.41723C8.62976 7.00174 9.14934 6.57715 9.92384 6.57715C11.5363 6.57715 11.834 7.63794 11.834 9.01746V11.8273Z" fill="black"/>
</svg>
