<svg width="16" height="16" viewBox="0 0 16 16" fill="none" xmlns="http://www.w3.org/2000/svg">
<path fill-rule="evenodd" clip-rule="evenodd" d="M2 5.33333C2 3.49238 3.49238 2 5.33333 2H10.6667C12.5076 2 14 3.49238 14 5.33333V10.6667C14 12.5076 12.5076 14 10.6667 14H5.33333C3.49238 14 2 12.5076 2 10.6667V5.33333ZM5.33333 3.33333C4.22876 3.33333 3.33333 4.22876 3.33333 5.33333V10.6667C3.33333 11.7712 4.22876 12.6667 5.33333 12.6667H10.6667C11.7712 12.6667 12.6667 11.7712 12.6667 10.6667V5.33333C12.6667 4.22876 11.7712 3.33333 10.6667 3.33333H5.33333Z" fill="black"/>
<path fill-rule="evenodd" clip-rule="evenodd" d="M11 5.66635C11.3682 5.66635 11.6667 5.36787 11.6667 4.99968C11.6667 4.63149 11.3682 4.33301 11 4.33301C10.6318 4.33301 10.3333 4.63149 10.3333 4.99968C10.3333 5.36787 10.6318 5.66635 11 5.66635ZM6.66665 7.99968C6.66665 7.2633 7.2636 6.66635 7.99998 6.66635C8.73636 6.66635 9.33331 7.2633 9.33331 7.99968C9.33331 8.73606 8.73636 9.33301 7.99998 9.33301C7.2636 9.33301 6.66665 8.73606 6.66665 7.99968ZM7.99998 5.33301C6.52722 5.33301 5.33331 6.52692 5.33331 7.99968C5.33331 9.47244 6.52722 10.6664 7.99998 10.6664C9.47274 10.6664 10.6667 9.47244 10.6667 7.99968C10.6667 6.52692 9.47274 5.33301 7.99998 5.33301Z" fill="black"/>
</svg>
