<svg width="16" height="16" viewBox="0 0 16 16" fill="none" xmlns="http://www.w3.org/2000/svg">
<path fill-rule="evenodd" clip-rule="evenodd" d="M1.53245 9.29935C1.77539 8.90626 2.20455 8.66699 2.66665 8.66699C2.78975 8.66699 2.93642 8.66683 3.09915 8.66305C2.96748 8.44614 2.85408 8.21709 2.75962 7.97757C2.29143 6.79038 2.32329 5.44387 2.72942 4.16748C2.90148 3.62673 3.39695 3.25412 3.96421 3.2389C4.53147 3.22367 5.04621 3.56915 5.24703 4.09989C5.47119 4.69232 5.74366 4.92598 6.05254 5.06663C6.24953 5.15633 6.49633 5.22329 6.81555 5.26772C7.25736 3.74041 8.63645 2.66699 10.3333 2.66699C10.8326 2.66699 11.3069 2.7845 11.6978 2.9405C11.8573 3.00413 12.0188 3.08054 12.175 3.16937L13.1218 3.01721C13.5959 2.94101 14.0744 3.12567 14.3744 3.50064C14.6744 3.87562 14.7497 4.38296 14.5713 4.82884L13.9973 6.26372C13.9512 8.53791 13.3031 10.3328 12.0678 11.5681C10.788 12.8479 9.07111 13.3336 7.33332 13.3336C6.19793 13.3336 5.02456 13.1462 4.0048 12.7383C3.00125 12.3368 2.00683 11.6621 1.47408 10.5966C1.26742 10.1832 1.28951 9.69244 1.53245 9.29935ZM12.6667 6.00032L13.3333 4.33365L11.8518 4.57175C11.8402 4.56055 11.8281 4.54935 11.8155 4.53816C11.5062 4.26407 10.9027 4.00032 10.3333 4.00032C8.99999 4.00032 7.99999 5.00032 7.99999 6.33365V6.66699C7.5166 6.66699 7.07215 6.64752 6.66665 6.59311C6.04858 6.51018 5.52099 6.34609 5.08387 6.04607C4.62122 5.72854 4.25993 5.25874 3.99999 4.57175C3.76457 5.31163 3.69542 6.03963 3.79252 6.70124C3.89302 7.3859 4.17156 7.99946 4.62814 8.4815C4.9798 8.85277 5.43709 9.14602 5.99999 9.33366C5.52901 9.64764 4.91016 9.81374 4.31754 9.90162C4.29231 9.90536 4.26712 9.90896 4.24199 9.91242C3.60433 10.0003 3.00597 10.0003 2.66665 10.0003C2.93322 10.5334 3.41296 10.96 4.02063 11.2799C4.93271 11.7602 6.13302 12.0003 7.33332 12.0003C10.3333 12.0003 12.6667 10.3336 12.6667 6.00032Z" fill="black"/>
</svg>
